{
	"asset":{
		"generator":"Khronos glTF Blender I/O v5.1.20",
		"version":"2.0"
	},
	"extensionsUsed":[
		"KHR_lights_punctual"
	],
	"extensionsRequired":[
		"KHR_lights_punctual"
	],
	"extensions":{
		"KHR_lights_punctual":{
			"lights":[
				{
					"color":[
						0.3090490698814392,
						0.59981769323349,
						1
					],
					"intensity":1,
					"type":"directional",
					"name":"Sun"
				}
			]
		}
	},
	"scene":0,
	"scenes":[
		{
			"name":"Scene",
			"nodes":[
				0,
				1,
				2,
				3,
				4,
				5,
				6,
				7,
				8,
				9,
				10,
				11,
				12,
				13,
				14,
				15,
				16,
				17,
				18,
				19,
				20,
				21,
				22,
				23,
				24,
				25
			]
		}
	],
	"nodes":[
		{
			"mesh":0,
			"name":"Mesh_0"
		},
		{
			"mesh":1,
			"name":"Cylinder",
			"rotation":[
				0,
				-0.3733586370944977,
				0,
				0.9276871085166931
			],
			"translation":[
				-2.681960105895996,
				0.5112239718437195,
				1.6091203689575195
			]
		},
		{
			"mesh":2,
			"name":"Cube",
			"rotation":[
				-0.01809784024953842,
				0.24630218744277954,
				-0.07101070135831833,
				0.9664188027381897
			],
			"translation":[
				2.6208982467651367,
				0,
				4.204389572143555
			]
		},
		{
			"camera":0,
			"name":"Camera",
			"rotation":[
				0.17354188859462738,
				0.16678819060325623,
				-0.02983557991683483,
				0.9701416492462158
			],
			"translation":[
				2.458251714706421,
				0.768835186958313,
				6.938031196594238
			]
		},
		{
			"name":"CamerTarget",
			"translation":[
				0,
				3.4892802238464355,
				0
			]
		},
		{
			"name":"B\u00e9zierCircle",
			"rotation":[
				0,
				0.8238797783851624,
				0,
				0.5667645931243896
			],
			"scale":[
				0.8181126117706299,
				31.462417602539062,
				0.8181126117706299
			],
			"translation":[
				0,
				0.768835186958313,
				0
			]
		},
		{
			"mesh":3,
			"name":"Cube.001",
			"rotation":[
				-0.05072237551212311,
				0.6903051733970642,
				-0.05288943648338318,
				0.719797670841217
			],
			"translation":[
				4.577856540679932,
				0,
				3.716491937637329
			]
		},
		{
			"mesh":4,
			"name":"Cube.002",
			"rotation":[
				0.07339770346879959,
				0.553426206111908,
				0.014500304125249386,
				0.8295311331748962
			],
			"translation":[
				3.6710622310638428,
				0,
				1.1959311962127686
			]
		},
		{
			"mesh":5,
			"name":"Cube.003",
			"rotation":[
				-0.052244313061237335,
				0.7522168755531311,
				-0.04467657208442688,
				0.6553201079368591
			],
			"translation":[
				6.483553886413574,
				0,
				0.9311543703079224
			]
		},
		{
			"mesh":6,
			"name":"Cube.004",
			"rotation":[
				-0.01809784024953842,
				0.24630218744277954,
				-0.07101070135831833,
				0.9664188027381897
			],
			"translation":[
				-0.38372039794921875,
				0,
				-6.168229103088379
			]
		},
		{
			"mesh":7,
			"name":"Cube.005",
			"rotation":[
				0.039137259125709534,
				0.6911851763725281,
				0.03318895772099495,
				0.7208535671234131
			],
			"translation":[
				4.765994548797607,
				0,
				-0.32573509216308594
			]
		},
		{
			"mesh":8,
			"name":"Cube.006",
			"rotation":[
				-0.01809784024953842,
				0.24630218744277954,
				-0.07101070135831833,
				0.9664188027381897
			],
			"translation":[
				3.1736319065093994,
				0,
				-1.8584884405136108
			]
		},
		{
			"mesh":9,
			"name":"Cube.007",
			"rotation":[
				-0.01809784024953842,
				0.24630218744277954,
				-0.07101070135831833,
				0.9664188027381897
			],
			"translation":[
				-2.368412494659424,
				0,
				-4.454582214355469
			]
		},
		{
			"mesh":10,
			"name":"Cube.008",
			"rotation":[
				-0.038266416639089584,
				0.24398356676101685,
				0.008604832924902439,
				0.968985915184021
			],
			"translation":[
				5.97031307220459,
				0,
				-1.6458725929260254
			]
		},
		{
			"mesh":11,
			"name":"Cube.009",
			"rotation":[
				-0.04396361485123634,
				0.243021622300148,
				0.03127060830593109,
				0.9685194492340088
			],
			"translation":[
				2.643784523010254,
				0,
				-3.9591665267944336
			]
		},
		{
			"mesh":12,
			"name":"Cube.010",
			"rotation":[
				-0.0664122924208641,
				0.23786909878253937,
				0.12136180698871613,
				0.9613943099975586
			],
			"translation":[
				4.536400318145752,
				0,
				-4.7767534255981445
			]
		},
		{
			"mesh":13,
			"name":"Cube.011",
			"rotation":[
				-0.05856088176369667,
				0.23992276191711426,
				0.08970817923545837,
				0.9648627638816833
			],
			"translation":[
				2.300823211669922,
				0,
				-5.5726399421691895
			]
		},
		{
			"mesh":14,
			"name":"Cube.012",
			"rotation":[
				-0.01809784024953842,
				0.24630218744277954,
				-0.07101070135831833,
				0.9664188027381897
			],
			"translation":[
				-6.437347412109375,
				0,
				-1.5571211576461792
			]
		},
		{
			"mesh":15,
			"name":"Cube.013",
			"rotation":[
				-0.0693880245089531,
				0.9443349838256836,
				-0.023565934970974922,
				0.3207201361656189
			],
			"translation":[
				-5.7963972091674805,
				0,
				1.7565205097198486
			]
		},
		{
			"mesh":16,
			"name":"Cube.014",
			"rotation":[
				-0.01809784024953842,
				0.24630218744277954,
				-0.07101070135831833,
				0.9664188027381897
			],
			"translation":[
				2.156182289123535,
				0,
				2.670034408569336
			]
		},
		{
			"mesh":17,
			"name":"Cube.015",
			"rotation":[
				-0.0673348680138588,
				0.9163925647735596,
				-0.02891482226550579,
				0.3935157358646393
			],
			"translation":[
				-4.531857490539551,
				0,
				-0.03637218475341797
			]
		},
		{
			"mesh":18,
			"name":"Cube.016",
			"rotation":[
				-0.01809784024953842,
				0.24630218744277954,
				-0.07101070135831833,
				0.9664188027381897
			],
			"translation":[
				-3.936044216156006,
				0,
				2.7371439933776855
			]
		},
		{
			"mesh":19,
			"name":"Cube.017",
			"rotation":[
				0.07339770346879959,
				0.553426206111908,
				0.014500304125249386,
				0.8295311331748962
			],
			"translation":[
				-3.400357246398926,
				0,
				-1.9005661010742188
			]
		},
		{
			"mesh":20,
			"name":"Cube.018",
			"rotation":[
				0.039137259125709534,
				0.6911851763725281,
				0.03318895772099495,
				0.7208535671234131
			],
			"translation":[
				-4.206026554107666,
				0,
				-3.191457986831665
			]
		},
		{
			"mesh":21,
			"name":"Cube.019",
			"rotation":[
				-0.0664122924208641,
				0.23786909878253937,
				0.12136180698871613,
				0.9613943099975586
			],
			"translation":[
				-2.4479308128356934,
				0,
				4.9162797927856445
			]
		},
		{
			"extensions":{
				"KHR_lights_punctual":{
					"light":0
				}
			},
			"name":"Sun",
			"rotation":[
				-0.5840540528297424,
				0.08698824793100357,
				-0.39859870076179504,
				0.7017357349395752
			],
			"translation":[
				19.85715103149414,
				20.056795120239258,
				10.081331253051758
			]
		}
	],
	"cameras":[
		{
			"name":"Camera",
			"perspective":{
				"aspectRatio":1.7777777777777777,
				"yfov":1.0247789579772038,
				"zfar":1000,
				"znear":0.10000000149011612
			},
			"type":"perspective"
		}
	],
	"animations":[
		{
			"channels":[
				{
					"sampler":0,
					"target":{
						"node":3,
						"path":"translation"
					}
				},
				{
					"sampler":1,
					"target":{
						"node":3,
						"path":"rotation"
					}
				}
			],
			"name":"Camera",
			"samplers":[
				{
					"input":69,
					"interpolation":"LINEAR",
					"output":70
				},
				{
					"input":69,
					"interpolation":"LINEAR",
					"output":71
				}
			]
		}
	],
	"materials":[
		{
			"doubleSided":true,
			"emissiveFactor":[
				1,
				1,
				1
			],
			"emissiveTexture":{
				"index":0
			},
			"name":"Material_0",
			"normalTexture":{
				"index":1
			},
			"pbrMetallicRoughness":{
				"baseColorTexture":{
					"index":2
				},
				"metallicRoughnessTexture":{
					"index":3
				}
			}
		},
		{
			"doubleSided":true,
			"name":"Rocky",
			"pbrMetallicRoughness":{
				"metallicFactor":0,
				"roughnessFactor":0.5
			}
		}
	],
	"meshes":[
		{
			"name":"Mesh_0",
			"primitives":[
				{
					"attributes":{
						"POSITION":0,
						"NORMAL":1,
						"TEXCOORD_0":2
					},
					"indices":3,
					"material":0
				}
			]
		},
		{
			"name":"Cylinder",
			"primitives":[
				{
					"attributes":{
						"POSITION":4,
						"NORMAL":5,
						"TEXCOORD_0":6
					},
					"indices":7,
					"material":1
				}
			]
		},
		{
			"name":"Cube",
			"primitives":[
				{
					"attributes":{
						"POSITION":8,
						"NORMAL":9,
						"TEXCOORD_0":10
					},
					"indices":11
				}
			]
		},
		{
			"name":"Cube.001",
			"primitives":[
				{
					"attributes":{
						"POSITION":12,
						"NORMAL":13,
						"TEXCOORD_0":14
					},
					"indices":11
				}
			]
		},
		{
			"name":"Cube.002",
			"primitives":[
				{
					"attributes":{
						"POSITION":15,
						"NORMAL":16,
						"TEXCOORD_0":17
					},
					"indices":11
				}
			]
		},
		{
			"name":"Cube.003",
			"primitives":[
				{
					"attributes":{
						"POSITION":18,
						"NORMAL":19,
						"TEXCOORD_0":20
					},
					"indices":11
				}
			]
		},
		{
			"name":"Cube.004",
			"primitives":[
				{
					"attributes":{
						"POSITION":21,
						"NORMAL":22,
						"TEXCOORD_0":23
					},
					"indices":11
				}
			]
		},
		{
			"name":"Cube.005",
			"primitives":[
				{
					"attributes":{
						"POSITION":24,
						"NORMAL":25,
						"TEXCOORD_0":26
					},
					"indices":11
				}
			]
		},
		{
			"name":"Cube.006",
			"primitives":[
				{
					"attributes":{
						"POSITION":27,
						"NORMAL":28,
						"TEXCOORD_0":29
					},
					"indices":11
				}
			]
		},
		{
			"name":"Cube.007",
			"primitives":[
				{
					"attributes":{
						"POSITION":30,
						"NORMAL":31,
						"TEXCOORD_0":32
					},
					"indices":11
				}
			]
		},
		{
			"name":"Cube.008",
			"primitives":[
				{
					"attributes":{
						"POSITION":33,
						"NORMAL":34,
						"TEXCOORD_0":35
					},
					"indices":11
				}
			]
		},
		{
			"name":"Cube.009",
			"primitives":[
				{
					"attributes":{
						"POSITION":36,
						"NORMAL":37,
						"TEXCOORD_0":38
					},
					"indices":11
				}
			]
		},
		{
			"name":"Cube.010",
			"primitives":[
				{
					"attributes":{
						"POSITION":39,
						"NORMAL":40,
						"TEXCOORD_0":41
					},
					"indices":11
				}
			]
		},
		{
			"name":"Cube.011",
			"primitives":[
				{
					"attributes":{
						"POSITION":42,
						"NORMAL":43,
						"TEXCOORD_0":44
					},
					"indices":11
				}
			]
		},
		{
			"name":"Cube.012",
			"primitives":[
				{
					"attributes":{
						"POSITION":45,
						"NORMAL":46,
						"TEXCOORD_0":47
					},
					"indices":11
				}
			]
		},
		{
			"name":"Cube.013",
			"primitives":[
				{
					"attributes":{
						"POSITION":48,
						"NORMAL":49,
						"TEXCOORD_0":50
					},
					"indices":11
				}
			]
		},
		{
			"name":"Cube.014",
			"primitives":[
				{
					"attributes":{
						"POSITION":51,
						"NORMAL":52,
						"TEXCOORD_0":53
					},
					"indices":11
				}
			]
		},
		{
			"name":"Cube.015",
			"primitives":[
				{
					"attributes":{
						"POSITION":54,
						"NORMAL":55,
						"TEXCOORD_0":56
					},
					"indices":11
				}
			]
		},
		{
			"name":"Cube.016",
			"primitives":[
				{
					"attributes":{
						"POSITION":57,
						"NORMAL":58,
						"TEXCOORD_0":59
					},
					"indices":11
				}
			]
		},
		{
			"name":"Cube.017",
			"primitives":[
				{
					"attributes":{
						"POSITION":60,
						"NORMAL":61,
						"TEXCOORD_0":62
					},
					"indices":11
				}
			]
		},
		{
			"name":"Cube.018",
			"primitives":[
				{
					"attributes":{
						"POSITION":63,
						"NORMAL":64,
						"TEXCOORD_0":65
					},
					"indices":11
				}
			]
		},
		{
			"name":"Cube.019",
			"primitives":[
				{
					"attributes":{
						"POSITION":66,
						"NORMAL":67,
						"TEXCOORD_0":68
					},
					"indices":11
				}
			]
		}
	],
	"textures":[
		{
			"sampler":0,
			"source":0
		},
		{
			"sampler":0,
			"source":1
		},
		{
			"sampler":0,
			"source":2
		},
		{
			"sampler":0,
			"source":3
		}
	],
	"images":[
		{
			"mimeType":"image/jpeg",
			"name":"Image_3",
			"uri":"Image_3.jpg"
		},
		{
			"mimeType":"image/jpeg",
			"name":"Image_2",
			"uri":"Image_2.jpg"
		},
		{
			"mimeType":"image/jpeg",
			"name":"Image_0",
			"uri":"Image_0.jpg"
		},
		{
			"mimeType":"image/jpeg",
			"name":"Image_1",
			"uri":"Image_1.jpg"
		}
	],
	"accessors":[
		{
			"bufferView":0,
			"componentType":5126,
			"count":356546,
			"max":[
				2.296403169631958,
				7.071421146392822,
				3.1192092895507812
			],
			"min":[
				-2.3014261722564697,
				-0.005579512100666761,
				-3.1236283779144287
			],
			"type":"VEC3"
		},
		{
			"bufferView":1,
			"componentType":5126,
			"count":356546,
			"type":"VEC3"
		},
		{
			"bufferView":2,
			"componentType":5126,
			"count":356546,
			"type":"VEC2"
		},
		{
			"bufferView":3,
			"componentType":5125,
			"count":1822530,
			"type":"SCALAR"
		},
		{
			"bufferView":4,
			"componentType":5126,
			"count":686,
			"max":[
				0.5,
				0.5,
				0.2510000169277191
			],
			"min":[
				-0.5,
				-0.5,
				-0.24989594519138336
			],
			"type":"VEC3"
		},
		{
			"bufferView":5,
			"componentType":5126,
			"count":686,
			"type":"VEC3"
		},
		{
			"bufferView":6,
			"componentType":5126,
			"count":686,
			"type":"VEC2"
		},
		{
			"bufferView":7,
			"componentType":5123,
			"count":2352,
			"type":"SCALAR"
		},
		{
			"bufferView":8,
			"componentType":5126,
			"count":42,
			"max":[
				0.41584014892578125,
				1.2757031917572021,
				0.10000002384185791
			],
			"min":[
				-0.41584014892578125,
				0,
				-0.10000002384185791
			],
			"type":"VEC3"
		},
		{
			"bufferView":9,
			"componentType":5126,
			"count":42,
			"type":"VEC3"
		},
		{
			"bufferView":10,
			"componentType":5126,
			"count":42,
			"type":"VEC2"
		},
		{
			"bufferView":11,
			"componentType":5123,
			"count":84,
			"type":"SCALAR"
		},
		{
			"bufferView":12,
			"componentType":5126,
			"count":42,
			"max":[
				0.41584014892578125,
				1.2757031917572021,
				0.10000002384185791
			],
			"min":[
				-0.41584014892578125,
				0,
				-0.10000002384185791
			],
			"type":"VEC3"
		},
		{
			"bufferView":13,
			"componentType":5126,
			"count":42,
			"type":"VEC3"
		},
		{
			"bufferView":14,
			"componentType":5126,
			"count":42,
			"type":"VEC2"
		},
		{
			"bufferView":15,
			"componentType":5126,
			"count":42,
			"max":[
				0.41584014892578125,
				1.2757031917572021,
				0.10000002384185791
			],
			"min":[
				-0.41584014892578125,
				0,
				-0.10000002384185791
			],
			"type":"VEC3"
		},
		{
			"bufferView":16,
			"componentType":5126,
			"count":42,
			"type":"VEC3"
		},
		{
			"bufferView":17,
			"componentType":5126,
			"count":42,
			"type":"VEC2"
		},
		{
			"bufferView":18,
			"componentType":5126,
			"count":42,
			"max":[
				0.41584014892578125,
				1.2757031917572021,
				0.10000002384185791
			],
			"min":[
				-0.41584014892578125,
				0,
				-0.10000002384185791
			],
			"type":"VEC3"
		},
		{
			"bufferView":19,
			"componentType":5126,
			"count":42,
			"type":"VEC3"
		},
		{
			"bufferView":20,
			"componentType":5126,
			"count":42,
			"type":"VEC2"
		},
		{
			"bufferView":21,
			"componentType":5126,
			"count":42,
			"max":[
				0.41584014892578125,
				1.2757031917572021,
				0.10000002384185791
			],
			"min":[
				-0.41584014892578125,
				0,
				-0.10000002384185791
			],
			"type":"VEC3"
		},
		{
			"bufferView":22,
			"componentType":5126,
			"count":42,
			"type":"VEC3"
		},
		{
			"bufferView":23,
			"componentType":5126,
			"count":42,
			"type":"VEC2"
		},
		{
			"bufferView":24,
			"componentType":5126,
			"count":42,
			"max":[
				0.41584014892578125,
				1.2757031917572021,
				0.10000002384185791
			],
			"min":[
				-0.41584014892578125,
				0,
				-0.10000002384185791
			],
			"type":"VEC3"
		},
		{
			"bufferView":25,
			"componentType":5126,
			"count":42,
			"type":"VEC3"
		},
		{
			"bufferView":26,
			"componentType":5126,
			"count":42,
			"type":"VEC2"
		},
		{
			"bufferView":27,
			"componentType":5126,
			"count":42,
			"max":[
				0.41584014892578125,
				1.2757031917572021,
				0.10000002384185791
			],
			"min":[
				-0.41584014892578125,
				0,
				-0.10000002384185791
			],
			"type":"VEC3"
		},
		{
			"bufferView":28,
			"componentType":5126,
			"count":42,
			"type":"VEC3"
		},
		{
			"bufferView":29,
			"componentType":5126,
			"count":42,
			"type":"VEC2"
		},
		{
			"bufferView":30,
			"componentType":5126,
			"count":42,
			"max":[
				0.41584014892578125,
				1.2757031917572021,
				0.10000002384185791
			],
			"min":[
				-0.41584014892578125,
				0,
				-0.10000002384185791
			],
			"type":"VEC3"
		},
		{
			"bufferView":31,
			"componentType":5126,
			"count":42,
			"type":"VEC3"
		},
		{
			"bufferView":32,
			"componentType":5126,
			"count":42,
			"type":"VEC2"
		},
		{
			"bufferView":33,
			"componentType":5126,
			"count":42,
			"max":[
				0.41584014892578125,
				1.2757031917572021,
				0.10000002384185791
			],
			"min":[
				-0.41584014892578125,
				0,
				-0.10000002384185791
			],
			"type":"VEC3"
		},
		{
			"bufferView":34,
			"componentType":5126,
			"count":42,
			"type":"VEC3"
		},
		{
			"bufferView":35,
			"componentType":5126,
			"count":42,
			"type":"VEC2"
		},
		{
			"bufferView":36,
			"componentType":5126,
			"count":42,
			"max":[
				0.41584014892578125,
				1.2757031917572021,
				0.10000002384185791
			],
			"min":[
				-0.41584014892578125,
				0,
				-0.10000002384185791
			],
			"type":"VEC3"
		},
		{
			"bufferView":37,
			"componentType":5126,
			"count":42,
			"type":"VEC3"
		},
		{
			"bufferView":38,
			"componentType":5126,
			"count":42,
			"type":"VEC2"
		},
		{
			"bufferView":39,
			"componentType":5126,
			"count":42,
			"max":[
				0.41584014892578125,
				1.2757031917572021,
				0.10000002384185791
			],
			"min":[
				-0.41584014892578125,
				0,
				-0.10000002384185791
			],
			"type":"VEC3"
		},
		{
			"bufferView":40,
			"componentType":5126,
			"count":42,
			"type":"VEC3"
		},
		{
			"bufferView":41,
			"componentType":5126,
			"count":42,
			"type":"VEC2"
		},
		{
			"bufferView":42,
			"componentType":5126,
			"count":42,
			"max":[
				0.41584014892578125,
				1.2757031917572021,
				0.10000002384185791
			],
			"min":[
				-0.41584014892578125,
				0,
				-0.10000002384185791
			],
			"type":"VEC3"
		},
		{
			"bufferView":43,
			"componentType":5126,
			"count":42,
			"type":"VEC3"
		},
		{
			"bufferView":44,
			"componentType":5126,
			"count":42,
			"type":"VEC2"
		},
		{
			"bufferView":45,
			"componentType":5126,
			"count":42,
			"max":[
				0.41584014892578125,
				1.2757031917572021,
				0.10000002384185791
			],
			"min":[
				-0.41584014892578125,
				0,
				-0.10000002384185791
			],
			"type":"VEC3"
		},
		{
			"bufferView":46,
			"componentType":5126,
			"count":42,
			"type":"VEC3"
		},
		{
			"bufferView":47,
			"componentType":5126,
			"count":42,
			"type":"VEC2"
		},
		{
			"bufferView":48,
			"componentType":5126,
			"count":42,
			"max":[
				0.41584014892578125,
				1.2757031917572021,
				0.10000002384185791
			],
			"min":[
				-0.41584014892578125,
				0,
				-0.10000002384185791
			],
			"type":"VEC3"
		},
		{
			"bufferView":49,
			"componentType":5126,
			"count":42,
			"type":"VEC3"
		},
		{
			"bufferView":50,
			"componentType":5126,
			"count":42,
			"type":"VEC2"
		},
		{
			"bufferView":51,
			"componentType":5126,
			"count":42,
			"max":[
				0.41584014892578125,
				1.2757031917572021,
				0.10000002384185791
			],
			"min":[
				-0.41584014892578125,
				0,
				-0.10000002384185791
			],
			"type":"VEC3"
		},
		{
			"bufferView":52,
			"componentType":5126,
			"count":42,
			"type":"VEC3"
		},
		{
			"bufferView":53,
			"componentType":5126,
			"count":42,
			"type":"VEC2"
		},
		{
			"bufferView":54,
			"componentType":5126,
			"count":42,
			"max":[
				0.41584014892578125,
				1.2757031917572021,
				0.10000002384185791
			],
			"min":[
				-0.41584014892578125,
				0,
				-0.10000002384185791
			],
			"type":"VEC3"
		},
		{
			"bufferView":55,
			"componentType":5126,
			"count":42,
			"type":"VEC3"
		},
		{
			"bufferView":56,
			"componentType":5126,
			"count":42,
			"type":"VEC2"
		},
		{
			"bufferView":57,
			"componentType":5126,
			"count":42,
			"max":[
				0.41584014892578125,
				1.2757031917572021,
				0.10000002384185791
			],
			"min":[
				-0.41584014892578125,
				0,
				-0.10000002384185791
			],
			"type":"VEC3"
		},
		{
			"bufferView":58,
			"componentType":5126,
			"count":42,
			"type":"VEC3"
		},
		{
			"bufferView":59,
			"componentType":5126,
			"count":42,
			"type":"VEC2"
		},
		{
			"bufferView":60,
			"componentType":5126,
			"count":42,
			"max":[
				0.41584014892578125,
				1.2757031917572021,
				0.10000002384185791
			],
			"min":[
				-0.41584014892578125,
				0,
				-0.10000002384185791
			],
			"type":"VEC3"
		},
		{
			"bufferView":61,
			"componentType":5126,
			"count":42,
			"type":"VEC3"
		},
		{
			"bufferView":62,
			"componentType":5126,
			"count":42,
			"type":"VEC2"
		},
		{
			"bufferView":63,
			"componentType":5126,
			"count":42,
			"max":[
				0.41584014892578125,
				1.2757031917572021,
				0.10000002384185791
			],
			"min":[
				-0.41584014892578125,
				0,
				-0.10000002384185791
			],
			"type":"VEC3"
		},
		{
			"bufferView":64,
			"componentType":5126,
			"count":42,
			"type":"VEC3"
		},
		{
			"bufferView":65,
			"componentType":5126,
			"count":42,
			"type":"VEC2"
		},
		{
			"bufferView":66,
			"componentType":5126,
			"count":42,
			"max":[
				0.41584014892578125,
				1.2757031917572021,
				0.10000002384185791
			],
			"min":[
				-0.41584014892578125,
				0,
				-0.10000002384185791
			],
			"type":"VEC3"
		},
		{
			"bufferView":67,
			"componentType":5126,
			"count":42,
			"type":"VEC3"
		},
		{
			"bufferView":68,
			"componentType":5126,
			"count":42,
			"type":"VEC2"
		},
		{
			"bufferView":69,
			"componentType":5126,
			"count":250,
			"max":[
				10.416666666666666
			],
			"min":[
				0.041666666666666664
			],
			"type":"SCALAR"
		},
		{
			"bufferView":70,
			"componentType":5126,
			"count":250,
			"type":"VEC3"
		},
		{
			"bufferView":71,
			"componentType":5126,
			"count":250,
			"type":"VEC4"
		}
	],
	"bufferViews":[
		{
			"buffer":0,
			"byteLength":4278552,
			"byteOffset":0,
			"target":34962
		},
		{
			"buffer":0,
			"byteLength":4278552,
			"byteOffset":4278552,
			"target":34962
		},
		{
			"buffer":0,
			"byteLength":2852368,
			"byteOffset":8557104,
			"target":34962
		},
		{
			"buffer":0,
			"byteLength":7290120,
			"byteOffset":11409472,
			"target":34963
		},
		{
			"buffer":0,
			"byteLength":8232,
			"byteOffset":18699592,
			"target":34962
		},
		{
			"buffer":0,
			"byteLength":8232,
			"byteOffset":18707824,
			"target":34962
		},
		{
			"buffer":0,
			"byteLength":5488,
			"byteOffset":18716056,
			"target":34962
		},
		{
			"buffer":0,
			"byteLength":4704,
			"byteOffset":18721544,
			"target":34963
		},
		{
			"buffer":0,
			"byteLength":504,
			"byteOffset":18726248,
			"target":34962
		},
		{
			"buffer":0,
			"byteLength":504,
			"byteOffset":18726752,
			"target":34962
		},
		{
			"buffer":0,
			"byteLength":336,
			"byteOffset":18727256,
			"target":34962
		},
		{
			"buffer":0,
			"byteLength":168,
			"byteOffset":18727592,
			"target":34963
		},
		{
			"buffer":0,
			"byteLength":504,
			"byteOffset":18727760,
			"target":34962
		},
		{
			"buffer":0,
			"byteLength":504,
			"byteOffset":18728264,
			"target":34962
		},
		{
			"buffer":0,
			"byteLength":336,
			"byteOffset":18728768,
			"target":34962
		},
		{
			"buffer":0,
			"byteLength":504,
			"byteOffset":18729104,
			"target":34962
		},
		{
			"buffer":0,
			"byteLength":504,
			"byteOffset":18729608,
			"target":34962
		},
		{
			"buffer":0,
			"byteLength":336,
			"byteOffset":18730112,
			"target":34962
		},
		{
			"buffer":0,
			"byteLength":504,
			"byteOffset":18730448,
			"target":34962
		},
		{
			"buffer":0,
			"byteLength":504,
			"byteOffset":18730952,
			"target":34962
		},
		{
			"buffer":0,
			"byteLength":336,
			"byteOffset":18731456,
			"target":34962
		},
		{
			"buffer":0,
			"byteLength":504,
			"byteOffset":18731792,
			"target":34962
		},
		{
			"buffer":0,
			"byteLength":504,
			"byteOffset":18732296,
			"target":34962
		},
		{
			"buffer":0,
			"byteLength":336,
			"byteOffset":18732800,
			"target":34962
		},
		{
			"buffer":0,
			"byteLength":504,
			"byteOffset":18733136,
			"target":34962
		},
		{
			"buffer":0,
			"byteLength":504,
			"byteOffset":18733640,
			"target":34962
		},
		{
			"buffer":0,
			"byteLength":336,
			"byteOffset":18734144,
			"target":34962
		},
		{
			"buffer":0,
			"byteLength":504,
			"byteOffset":18734480,
			"target":34962
		},
		{
			"buffer":0,
			"byteLength":504,
			"byteOffset":18734984,
			"target":34962
		},
		{
			"buffer":0,
			"byteLength":336,
			"byteOffset":18735488,
			"target":34962
		},
		{
			"buffer":0,
			"byteLength":504,
			"byteOffset":18735824,
			"target":34962
		},
		{
			"buffer":0,
			"byteLength":504,
			"byteOffset":18736328,
			"target":34962
		},
		{
			"buffer":0,
			"byteLength":336,
			"byteOffset":18736832,
			"target":34962
		},
		{
			"buffer":0,
			"byteLength":504,
			"byteOffset":18737168,
			"target":34962
		},
		{
			"buffer":0,
			"byteLength":504,
			"byteOffset":18737672,
			"target":34962
		},
		{
			"buffer":0,
			"byteLength":336,
			"byteOffset":18738176,
			"target":34962
		},
		{
			"buffer":0,
			"byteLength":504,
			"byteOffset":18738512,
			"target":34962
		},
		{
			"buffer":0,
			"byteLength":504,
			"byteOffset":18739016,
			"target":34962
		},
		{
			"buffer":0,
			"byteLength":336,
			"byteOffset":18739520,
			"target":34962
		},
		{
			"buffer":0,
			"byteLength":504,
			"byteOffset":18739856,
			"target":34962
		},
		{
			"buffer":0,
			"byteLength":504,
			"byteOffset":18740360,
			"target":34962
		},
		{
			"buffer":0,
			"byteLength":336,
			"byteOffset":18740864,
			"target":34962
		},
		{
			"buffer":0,
			"byteLength":504,
			"byteOffset":18741200,
			"target":34962
		},
		{
			"buffer":0,
			"byteLength":504,
			"byteOffset":18741704,
			"target":34962
		},
		{
			"buffer":0,
			"byteLength":336,
			"byteOffset":18742208,
			"target":34962
		},
		{
			"buffer":0,
			"byteLength":504,
			"byteOffset":18742544,
			"target":34962
		},
		{
			"buffer":0,
			"byteLength":504,
			"byteOffset":18743048,
			"target":34962
		},
		{
			"buffer":0,
			"byteLength":336,
			"byteOffset":18743552,
			"target":34962
		},
		{
			"buffer":0,
			"byteLength":504,
			"byteOffset":18743888,
			"target":34962
		},
		{
			"buffer":0,
			"byteLength":504,
			"byteOffset":18744392,
			"target":34962
		},
		{
			"buffer":0,
			"byteLength":336,
			"byteOffset":18744896,
			"target":34962
		},
		{
			"buffer":0,
			"byteLength":504,
			"byteOffset":18745232,
			"target":34962
		},
		{
			"buffer":0,
			"byteLength":504,
			"byteOffset":18745736,
			"target":34962
		},
		{
			"buffer":0,
			"byteLength":336,
			"byteOffset":18746240,
			"target":34962
		},
		{
			"buffer":0,
			"byteLength":504,
			"byteOffset":18746576,
			"target":34962
		},
		{
			"buffer":0,
			"byteLength":504,
			"byteOffset":18747080,
			"target":34962
		},
		{
			"buffer":0,
			"byteLength":336,
			"byteOffset":18747584,
			"target":34962
		},
		{
			"buffer":0,
			"byteLength":504,
			"byteOffset":18747920,
			"target":34962
		},
		{
			"buffer":0,
			"byteLength":504,
			"byteOffset":18748424,
			"target":34962
		},
		{
			"buffer":0,
			"byteLength":336,
			"byteOffset":18748928,
			"target":34962
		},
		{
			"buffer":0,
			"byteLength":504,
			"byteOffset":18749264,
			"target":34962
		},
		{
			"buffer":0,
			"byteLength":504,
			"byteOffset":18749768,
			"target":34962
		},
		{
			"buffer":0,
			"byteLength":336,
			"byteOffset":18750272,
			"target":34962
		},
		{
			"buffer":0,
			"byteLength":504,
			"byteOffset":18750608,
			"target":34962
		},
		{
			"buffer":0,
			"byteLength":504,
			"byteOffset":18751112,
			"target":34962
		},
		{
			"buffer":0,
			"byteLength":336,
			"byteOffset":18751616,
			"target":34962
		},
		{
			"buffer":0,
			"byteLength":504,
			"byteOffset":18751952,
			"target":34962
		},
		{
			"buffer":0,
			"byteLength":504,
			"byteOffset":18752456,
			"target":34962
		},
		{
			"buffer":0,
			"byteLength":336,
			"byteOffset":18752960,
			"target":34962
		},
		{
			"buffer":0,
			"byteLength":1000,
			"byteOffset":18753296
		},
		{
			"buffer":0,
			"byteLength":3000,
			"byteOffset":18754296
		},
		{
			"buffer":0,
			"byteLength":4000,
			"byteOffset":18757296
		}
	],
	"samplers":[
		{
			"magFilter":9729,
			"minFilter":9987
		}
	],
	"buffers":[
		{
			"byteLength":18761296,
			"uri":"churchyard.bin"
		}
	]
}
